<svg width="95" height="25" viewBox="0 0 95 25" fill="none" xmlns="http://www.w3.org/2000/svg">
<path d="M25.7853 2.77417L21.0556 3.55417L24.3531 7.09417L26.724 6.69417L25.7853 2.77417ZM17.5173 4.13417L15.1464 4.52417L18.456 8.05417L20.8149 7.66417L17.5173 4.13417ZM11.6202 5.09417L9.2493 5.50417L12.5589 9.03417L14.9178 8.64417L11.6202 5.09417ZM5.71102 6.09417L4.5316 6.28417C3.90624 6.38799 3.35603 6.69377 3.00177 7.13438C2.6475 7.57498 2.51815 8.11439 2.64211 8.63417L3.11147 10.5942L9.0086 9.62417L5.71102 6.09417ZM3.11147 10.5942V20.5942C3.11147 21.7042 4.19462 22.5942 5.51846 22.5942H24.7744C26.1103 22.5942 27.1814 21.7042 27.1814 20.5942V10.5942H3.11147Z" fill="white"/>
<path d="M38.2686 6.62146C37.999 6.67923 37.7872 6.78514 37.6332 6.93918C37.5946 6.9777 37.5561 7.04509 37.5176 7.14137C37.4984 7.2184 37.4791 7.27616 37.4599 7.31468C37.4213 7.37244 37.3828 7.70942 37.3443 8.32561C37.3251 8.9418 37.3058 9.67352 37.2866 10.5208C37.2673 11.368 37.2577 12.2538 37.2577 13.1781C37.2577 14.0831 37.2866 14.8726 37.3443 15.5466C37.4021 16.105 37.5465 16.6538 37.7776 17.193C38.0279 17.7129 38.4323 18.0498 38.9907 18.2039C39.4143 18.2424 39.8091 18.1846 40.1749 18.0306C40.5601 17.8573 40.8489 17.5781 41.0415 17.193C41.2533 16.7501 41.3399 16.2879 41.3014 15.8065C41.2822 15.3059 41.3207 14.8149 41.4169 14.3335C41.6865 14.372 41.985 14.3816 42.3123 14.3623C42.659 14.3431 43.0056 14.3335 43.3522 14.3335C43.6988 14.3335 44.0358 14.3431 44.3631 14.3623C44.7097 14.3816 45.0178 14.4297 45.2874 14.5068C45.6147 15.5081 45.7014 16.5094 45.5473 17.5107C45.3933 18.4927 45.0563 19.3785 44.5364 20.168C44.0165 20.9575 43.3329 21.6122 42.4857 22.1321C41.6576 22.6328 40.7141 22.8927 39.655 22.912C38.9618 23.0082 38.2494 23.0082 37.5176 22.912C36.7859 22.8349 36.1023 22.652 35.4669 22.3632C34.8314 22.0551 34.2923 21.6314 33.8494 21.0923C33.4257 20.5531 33.1754 19.8792 33.0984 19.0704C33.0599 18.3772 33.031 17.6551 33.0117 16.9041C32.9925 16.1531 32.9732 15.3155 32.954 14.3912C32.954 13.4477 32.954 12.3886 32.954 11.214C32.9732 10.0201 32.9925 8.64333 33.0117 7.08361C32.9732 6.75625 32.9829 6.4289 33.0406 6.10155C33.1177 5.75495 33.2139 5.43722 33.3295 5.14839C33.5028 4.64773 33.7146 4.18559 33.9649 3.76196C34.2345 3.33833 34.5522 2.96284 34.9181 2.63549C35.1299 2.48144 35.361 2.35628 35.6113 2.26C35.8616 2.14446 36.1216 2.04818 36.3912 1.97116C37.2769 1.68232 38.1531 1.56679 39.0196 1.62456C39.8861 1.68232 40.6949 1.88451 41.4458 2.23112C42.2161 2.55847 42.9093 3.00135 43.5255 3.55977C44.1417 4.11819 44.6327 4.76327 44.9985 5.49499C45.3644 6.20746 45.5859 6.98733 45.6629 7.83458C45.7399 8.68185 45.6244 9.54836 45.3163 10.4341C44.6038 10.5882 43.901 10.6459 43.2077 10.6074C42.5338 10.5497 41.8309 10.4534 41.0992 10.3186C41.0415 9.95273 41.0029 9.53873 40.9837 9.07659C40.9837 8.61445 40.9355 8.19082 40.8393 7.8057C40.743 7.40133 40.5601 7.07398 40.2905 6.82365C40.0402 6.57332 39.6358 6.45779 39.0774 6.47704C38.827 6.51556 38.5574 6.56369 38.2686 6.62146ZM57.9466 2.17335C58.3125 2.17335 58.6399 2.18298 58.9287 2.20223L59.7086 22.4209C59.3812 22.4787 59.025 22.5172 58.6399 22.5365C58.274 22.5557 57.9081 22.5654 57.5423 22.5654C57.1957 22.5654 56.8491 22.5654 56.5024 22.5654C56.1751 22.5654 55.8959 22.575 55.6648 22.5942H55.6359C55.5397 21.9588 55.4723 21.3041 55.4337 20.6301C55.4145 19.9369 55.3952 19.2533 55.376 18.5794C55.376 17.9054 55.3663 17.2315 55.3471 16.5575C55.3278 15.8836 55.2797 15.2385 55.2027 14.6223L55.1738 14.5934C54.6154 14.4971 54.0569 14.449 53.4985 14.449C52.9401 14.449 52.3817 14.5164 51.8233 14.6512C51.7655 15.3251 51.7366 15.9895 51.7366 16.6442C51.7559 17.2989 51.7751 17.9536 51.7944 18.6083C51.8136 19.263 51.8136 19.908 51.7944 20.5435C51.7944 21.1597 51.7462 21.7759 51.65 22.3921C51.4189 22.5268 51.1108 22.5942 50.7257 22.5942C50.3406 22.5942 49.9554 22.575 49.5703 22.5365C49.1852 22.498 48.8193 22.4691 48.4727 22.4498C48.1454 22.4306 47.8951 22.4691 47.7218 22.5654C47.6832 22.0262 47.6351 21.2945 47.5773 20.3702C47.5388 19.4266 47.5003 18.3772 47.4618 17.2218C47.4233 16.0472 47.3848 14.8052 47.3463 13.4958C47.327 12.1864 47.3078 10.877 47.2885 9.56762C47.2692 8.23896 47.2596 6.96807 47.2596 5.75495C47.2789 4.52257 47.2981 3.41536 47.3174 2.4333V2.40442H47.3463H47.404C47.6929 2.46219 47.9913 2.48144 48.2994 2.46219C48.6268 2.44293 48.9445 2.42368 49.2526 2.40442C49.5799 2.38516 49.8977 2.37554 50.2058 2.37554C50.5139 2.37554 50.8027 2.41405 51.0723 2.49107C51.2456 3.81973 51.3322 5.10987 51.3322 6.36151C51.3322 7.61314 51.4478 8.85515 51.6788 10.0875H51.7077C52.1891 10.2031 52.709 10.2416 53.2675 10.2031C53.8259 10.1453 54.3458 10.0972 54.8272 10.0586H54.8561C54.9716 8.72999 55.0294 7.48798 55.0294 6.33262C55.0486 5.17727 55.0294 3.90638 54.9716 2.51995C55.2027 2.44293 55.4819 2.37554 55.8092 2.31777C56.1558 2.26 56.5121 2.22149 56.8779 2.20223C57.2438 2.16372 57.6 2.15409 57.9466 2.17335ZM64.3018 2.28888C64.7639 2.30814 65.4282 2.30814 66.2948 2.28888H66.988V2.40442C66.988 4.06043 66.9591 5.72606 66.9013 7.40133C66.8628 9.07659 66.8243 10.7615 66.7858 12.456C66.7665 14.1313 66.7665 15.8065 66.7858 17.4818C66.805 19.1571 66.8628 20.8131 66.9591 22.4498C66.805 22.6039 66.4777 22.6905 65.977 22.7098C65.4956 22.7483 64.9661 22.7579 64.3884 22.7387C63.83 22.7194 63.2908 22.6905 62.7709 22.652C62.251 22.6328 61.8948 22.652 61.7022 22.7098C61.837 20.9767 61.8948 19.2341 61.8755 17.4818C61.8563 15.7295 61.8178 13.9965 61.76 12.2827C61.7215 10.5497 61.6926 8.84552 61.6733 7.17026C61.6733 5.47574 61.76 3.81973 61.9333 2.20223V2.14447C62.0296 2.12521 62.2125 2.13484 62.4821 2.17335C62.7709 2.1926 62.9827 2.20223 63.1175 2.20223C63.4641 2.22149 63.8589 2.25037 64.3018 2.28888ZM81.2498 19.4459C81.2498 19.6385 81.2594 19.8118 81.2787 19.9658C81.3172 20.659 81.3365 21.1886 81.3365 21.5544C81.3365 21.901 81.3076 22.161 81.2498 22.3343C81.2113 22.4883 81.1343 22.575 81.0188 22.5942C80.9032 22.5942 80.7395 22.5942 80.5277 22.5942C80.3159 22.575 80.0367 22.575 79.6901 22.5942C79.3627 22.6135 78.7947 22.6328 77.9859 22.652C77.1965 22.6713 76.0989 22.6809 74.6932 22.6809C73.3068 22.6809 71.4486 22.6616 69.1186 22.6231V22.1032C69.1764 20.659 69.2245 19.3592 69.263 18.2039C69.3015 17.0293 69.3208 15.9413 69.3208 14.94C69.34 13.9195 69.3497 12.9374 69.3497 11.9939C69.3497 11.0503 69.34 10.0875 69.3208 9.10548C69.3015 8.12342 69.2823 7.08361 69.263 5.98602C69.2438 4.86918 69.2245 3.6368 69.2053 2.28888C69.3978 2.21186 69.6963 2.15409 70.1007 2.11558C70.505 2.05781 70.9383 2.02893 71.4004 2.02893C71.8626 2.02893 72.3151 2.05781 72.758 2.11558C73.2009 2.17335 73.5571 2.26 73.8267 2.37554C73.7882 3.62717 73.7689 4.91731 73.7689 6.24597C73.7882 7.55537 73.8074 8.8744 73.8267 10.2031C73.8459 11.5317 73.8556 12.8604 73.8556 14.189C73.8748 15.4984 73.8748 16.7693 73.8556 18.0017V18.0306C73.9903 17.9921 74.2407 17.9824 74.6065 18.0017C74.9917 18.0017 75.4345 18.0113 75.9352 18.0306C76.4358 18.0498 76.9654 18.0787 77.5238 18.1172C78.1015 18.1365 78.6406 18.1558 79.1413 18.175C79.6612 18.1943 80.1137 18.2135 80.4988 18.2328C80.9032 18.2328 81.1824 18.2231 81.3365 18.2039C81.3365 18.4157 81.3268 18.6275 81.3076 18.8393C81.2883 19.0319 81.2691 19.2341 81.2498 19.4459ZM94.5635 19.4459C94.5635 19.6385 94.5731 19.8118 94.5924 19.9658C94.6309 20.659 94.6501 21.1886 94.6501 21.5544C94.6501 21.901 94.6212 22.161 94.5635 22.3343C94.525 22.4883 94.4479 22.575 94.3324 22.5942C94.2169 22.5942 94.0532 22.5942 93.8414 22.5942C93.6296 22.575 93.3504 22.575 93.0037 22.5942C92.6764 22.6135 92.1083 22.6328 91.2996 22.652C90.5101 22.6713 89.4125 22.6809 88.0068 22.6809C86.6204 22.6809 84.7622 22.6616 82.4323 22.6231V22.1032C82.49 20.659 82.5382 19.3592 82.5767 18.2039C82.6152 17.0293 82.6344 15.9413 82.6344 14.94C82.6537 13.9195 82.6633 12.9374 82.6633 11.9939C82.6633 11.0503 82.6537 10.0875 82.6344 9.10548C82.6152 8.12342 82.5959 7.08361 82.5767 5.98602C82.5574 4.86918 82.5382 3.6368 82.5189 2.28888C82.7115 2.21186 83.0099 2.15409 83.4143 2.11558C83.8187 2.05781 84.2519 2.02893 84.7141 2.02893C85.1762 2.02893 85.6287 2.05781 86.0716 2.11558C86.5145 2.17335 86.8707 2.26 87.1403 2.37554C87.1018 3.62717 87.0826 4.91731 87.0826 6.24597C87.1018 7.55537 87.1211 8.8744 87.1403 10.2031C87.1596 11.5317 87.1692 12.8604 87.1692 14.189C87.1885 15.4984 87.1885 16.7693 87.1692 18.0017V18.0306C87.304 17.9921 87.5543 17.9824 87.9202 18.0017C88.3053 18.0017 88.7482 18.0113 89.2488 18.0306C89.7495 18.0498 90.279 18.0787 90.8375 18.1172C91.4151 18.1365 91.9543 18.1558 92.455 18.175C92.9749 18.1943 93.4274 18.2135 93.8125 18.2328C94.2169 18.2328 94.4961 18.2231 94.6501 18.2039C94.6501 18.4157 94.6405 18.6275 94.6212 18.8393C94.602 19.0319 94.5827 19.2341 94.5635 19.4459Z" fill="white"/>
</svg>
